<svg width="20" height="20" viewBox="0 0 20 20" fill="none" xmlns="http://www.w3.org/2000/svg">
<path fill-rule="evenodd" clip-rule="evenodd" d="M17.5998 7.16002C17.5722 5.285 16.5106 3.43849 14.8773 2.67743C14.0474 2.29065 13.0848 2.19432 12.0809 2.51296C11.2448 2.77836 10.4074 3.32229 9.59997 4.17749C8.79249 3.32229 7.95511 2.77836 7.119 2.51296C6.11517 2.19432 5.15258 2.29065 4.32255 2.67743C2.68933 3.43849 1.62782 5.285 1.6001 7.16002L1.60004 7.16878C1.60004 9.90355 3.22644 12.3264 4.94891 14.0269C5.81839 14.8852 6.73619 15.5839 7.53679 16.0717C7.93684 16.3153 8.3156 16.5114 8.65119 16.6483C8.97178 16.7791 9.30626 16.8785 9.59997 16.8785C9.89368 16.8785 10.2282 16.7791 10.5487 16.6483C10.8843 16.5114 11.2631 16.3153 11.6631 16.0717C12.4638 15.5839 13.3815 14.8852 14.2511 14.0269C15.9735 12.3264 17.5999 9.90355 17.5999 7.16878L17.5998 7.16002Z" fill="white" fill-opacity="0.3"/>
</svg>
