<svg width="36" height="36" viewBox="0 0 36 36" fill="none" xmlns="http://www.w3.org/2000/svg">
<g clip-path="url(#clip0_63_84)">
<path fill-rule="evenodd" clip-rule="evenodd" d="M10.8871 10.8868C12.5757 9.19967 15.0114 8.35681 18 8.35681C20.9886 8.35681 23.4243 9.19967 25.1129 10.8868C26.8 12.5754 27.6429 15.0111 27.6429 17.9997C27.6429 20.9882 26.8 23.424 25.1129 25.1125C23.4243 26.7997 20.9886 27.6425 18 27.6425C15.0114 27.6425 12.5757 26.7997 10.8871 25.1125C9.2 23.424 8.35715 20.9882 8.35715 17.9997C8.35715 15.0111 9.2 12.5754 10.8871 10.8868ZM17.3971 14.0011C17.343 13.8303 17.2387 13.6798 17.0979 13.569C16.9571 13.4583 16.7862 13.3925 16.6075 13.3802C16.4287 13.3678 16.2504 13.4096 16.0957 13.4999C15.941 13.5903 15.8171 13.7251 15.74 13.8868L14.3371 16.844H13.0657C12.8289 16.844 12.6018 16.938 12.4344 17.1055C12.2669 17.2729 12.1729 17.5 12.1729 17.7368C12.1729 17.9736 12.2669 18.2007 12.4344 18.3682C12.6018 18.5356 12.8289 18.6297 13.0657 18.6297H14.9014C15.0704 18.6298 15.236 18.5819 15.3789 18.4916C15.5218 18.4013 15.6361 18.2724 15.7086 18.1197L16.38 16.7054L18.0543 21.9982C18.1068 22.1651 18.2073 22.3128 18.3431 22.4231C18.4788 22.5334 18.644 22.6013 18.8181 22.6185C18.9922 22.6357 19.1675 22.6014 19.3223 22.5198C19.477 22.4383 19.6044 22.313 19.6886 22.1597L21.6271 18.6282H22.9343C23.1711 18.6282 23.3982 18.5342 23.5656 18.3667C23.7331 18.1993 23.8271 17.9722 23.8271 17.7354C23.8271 17.4986 23.7331 17.2715 23.5656 17.104C23.3982 16.9366 23.1711 16.8425 22.9343 16.8425H21.0986C20.9386 16.8425 20.7815 16.8854 20.6438 16.9668C20.5061 17.0482 20.3928 17.1652 20.3157 17.3054L19.1271 19.4682L17.3986 13.9997L17.3971 14.0011Z" fill="white" fill-opacity="0.5"/>
</g>
<defs>
<clipPath id="clip0_63_84">
<rect width="20" height="20" fill="white" transform="translate(8 8)"/>
</clipPath>
</defs>
</svg>
