<svg width="36" height="36" viewBox="0 0 36 36" fill="none" xmlns="http://www.w3.org/2000/svg">
<g clip-path="url(#clip0_63_102)">
<path fill-rule="evenodd" clip-rule="evenodd" d="M18 28C24.4 28 28 24.4 28 18C28 11.6 24.4 8 18 8C11.6 8 8 11.6 8 18C8 24.4 11.6 28 18 28ZM23.1951 24.4697C22.8314 23.792 22.3359 23.1871 21.7317 22.6934C20.6786 21.8326 19.3603 21.3624 18.0001 21.3624C16.64 21.3624 15.3217 21.8326 14.2685 22.6934C13.6644 23.1871 13.1689 23.792 12.805 24.4697C13.9942 25.3244 15.6853 25.8571 18.0002 25.8571C20.315 25.8571 22.0061 25.3244 23.1951 24.4697ZM21.3644 15.5268C21.3644 17.6807 20.1529 18.8922 17.999 18.8922C15.8452 18.8922 14.6336 17.6807 14.6336 15.5268C14.6336 13.373 15.8452 12.1615 17.999 12.1615C20.1529 12.1615 21.3644 13.373 21.3644 15.5268Z" fill="white" fill-opacity="0.5"/>
</g>
<defs>
<clipPath id="clip0_63_102">
<rect width="20" height="20" fill="white" transform="translate(8 8)"/>
</clipPath>
</defs>
</svg>
