<svg width="36" height="36" viewBox="0 0 36 36" fill="none" xmlns="http://www.w3.org/2000/svg">
<path d="M18 8C13.8577 8 10.5 15.3298 10.5 19.9931C10.5 24.4149 13.1704 28 18 28C22.8296 28 25.5 24.4149 25.5 19.9931C25.5 15.33 22.1421 8 18 8ZM23.0313 25.0938L22.9115 25.2335L22.7791 25.3611L22.5126 25.6146C22.3312 25.7787 22.1288 25.9167 21.9356 26.066C21.7273 26.1901 21.5206 26.3203 21.3072 26.4314C21.0863 26.526 20.8729 26.6441 20.6443 26.7161C19.7393 27.0339 18.7895 27.1545 17.8625 27.1007C16.9347 27.0564 16.0077 26.8299 15.1768 26.4054C14.3511 25.9757 13.629 25.3429 13.1466 24.5634C13.7927 25.2014 14.5468 25.6814 15.3598 25.9609C16.1687 26.2517 17.0248 26.3559 17.8743 26.3333C18.7228 26.2943 19.5638 26.1667 20.3279 25.8438C21.0954 25.5373 21.7846 25.0582 22.3235 24.4332C22.8692 23.8142 23.2674 23.0599 23.5221 22.2474C23.5972 22.0478 23.641 21.8368 23.6891 21.6267C23.7456 21.4193 23.7726 21.2031 23.803 20.9887C23.8173 20.8811 23.8376 20.7743 23.8468 20.6658L23.8688 20.3385L23.8957 20.0104L23.905 19.6814C23.9059 18.8021 23.8063 17.9071 23.6343 17.0234C23.4706 16.1363 23.226 15.2604 22.9477 14.3854C23.4183 15.1701 23.7878 16.02 24.0847 16.9001C24.3698 17.7838 24.5806 18.7039 24.6464 19.6545C24.7072 20.605 24.6346 21.5729 24.385 22.5139C24.1344 23.4531 23.6791 24.3534 23.0313 25.0938Z" fill="url(#paint0_linear_63_92)"/>
<defs>
<linearGradient id="paint0_linear_63_92" x1="18" y1="8" x2="18" y2="28" gradientUnits="userSpaceOnUse">
<stop stop-color="#ECBD75"/>
<stop offset="1" stop-color="#8C8C8C"/>
</linearGradient>
</defs>
</svg>
