<svg width="20" height="20" viewBox="0 0 20 20" fill="none" xmlns="http://www.w3.org/2000/svg">
<path fill-rule="evenodd" clip-rule="evenodd" d="M9.13667 1.59999H10.0659C10.4135 1.6007 10.7529 1.70597 11.0399 1.90212C11.327 2.09826 11.5484 2.37621 11.6753 2.69984L12.1008 3.78073L13.3927 4.52621L14.5376 4.35199C14.8819 4.30013 15.2339 4.35325 15.5477 4.50441C15.8614 4.65557 16.1223 4.89776 16.2964 5.1994L16.7598 6.00058C16.9343 6.30211 17.0138 6.6493 16.9878 6.99674C16.9618 7.34418 16.8315 7.67567 16.614 7.94784L15.891 8.85214V10.3478L16.6093 11.2521C16.8262 11.5246 16.9561 11.856 16.9821 12.2033C17.0081 12.5506 16.929 12.8977 16.755 13.1994L16.2928 14.0006C16.1186 14.3021 15.8577 14.5442 15.544 14.6953C15.2303 14.8465 14.8784 14.8997 14.534 14.848L13.3879 14.6738L12.0949 15.4204L11.6718 16.499C11.545 16.8228 11.3237 17.101 11.0366 17.2974C10.7496 17.4937 10.4101 17.5992 10.0623 17.6H9.1343C8.78651 17.5992 8.44701 17.4937 8.15997 17.2974C7.87292 17.101 7.65161 16.8228 7.52481 16.499L7.1017 15.4204L5.80867 14.6738L4.66259 14.848C4.31835 14.9 3.96643 14.847 3.6527 14.6961C3.33898 14.5451 3.078 14.3032 2.90378 14.0018L2.44156 13.1994C2.26699 12.8979 2.18751 12.5507 2.21352 12.2032C2.23953 11.8558 2.36982 11.5243 2.58733 11.2521L3.3103 10.3478V8.85214L2.58733 7.94784C2.36994 7.67565 2.23963 7.34425 2.21341 6.99689C2.18719 6.64952 2.26629 6.30232 2.44037 6.00058L2.90259 5.1994C3.07672 4.89755 3.33782 4.65522 3.6518 4.50405C3.96577 4.35287 4.31804 4.29988 4.66259 4.35199L5.80511 4.52621L7.1017 3.77481L7.52718 2.69984C7.65389 2.37602 7.87522 2.09789 8.16231 1.90171C8.4494 1.70552 8.78894 1.60038 9.13667 1.59999ZM11.9657 9.59999C11.9657 11.1135 11.1136 11.9656 9.60007 11.9656C8.08659 11.9656 7.23444 11.1135 7.23444 9.59999C7.23444 8.08651 8.08659 7.23436 9.60007 7.23436C11.1136 7.23436 11.9657 8.08651 11.9657 9.59999Z" fill="white" fill-opacity="0.3"/>
</svg>
