
<svg width="36" height="36" viewBox="0 0 36 36" fill="none" xmlns="http://www.w3.org/2000/svg">
<rect width="36" height="36" rx="12" fill="url(#paint0_linear_63_74)" fill-opacity="0.1"/>
<g clip-path="url(#clip0_63_74)">
<path d="M20.8291 17.9683C21.6586 18.4565 22.6335 18.731 23.6592 18.731C24.5201 18.731 25.3598 18.5302 26.1084 18.1666V24.6187C26.1084 26.0354 25.0774 27.2116 23.7246 27.4371V22.2818C23.7245 21.4929 23.0849 20.8531 22.2959 20.8531H20.8672C20.0784 20.8533 19.4395 21.4931 19.4395 22.2818V27.4761H12.749C11.1711 27.4761 9.89164 26.1965 9.8916 24.6187V18.1675C10.6401 18.5309 11.4801 18.731 12.3408 18.731C13.3664 18.731 14.3404 18.4565 15.1699 17.9683C15.9995 18.4565 16.9743 18.731 18 18.731C19.0256 18.731 19.9996 18.4564 20.8291 17.9683ZM12.2959 20.8531C11.9015 20.8532 11.582 21.1735 11.582 21.5679V23.7105C11.582 24.105 11.9015 24.4242 12.2959 24.4244H16.582C16.9765 24.4243 17.2959 24.105 17.2959 23.7105V21.5679C17.2959 21.1735 16.9765 20.8532 16.582 20.8531H12.2959ZM12.3408 9.19781C16.7906 8.57697 19.2688 8.58253 23.6592 9.19781C26.4882 10.2237 27.1961 12.8844 27.1963 13.7398C27.1963 15.5106 25.6125 16.9467 23.6592 16.9468C22.5022 16.9468 21.4744 16.4432 20.8291 15.6646C20.1838 16.443 19.1568 16.9468 18 16.9468C16.843 16.9468 15.8152 16.4432 15.1699 15.6646C14.5246 16.443 13.4976 16.9468 12.3408 16.9468C10.3874 16.9468 8.80371 15.5106 8.80371 13.7398C8.80393 12.8844 9.51165 10.2237 12.3408 9.19781Z" fill="white" fill-opacity="0.5"/>
<path d="M20.8291 17.9683C21.6586 18.4565 22.6335 18.731 23.6592 18.731C24.5201 18.731 25.3598 18.5302 26.1084 18.1666V24.6187C26.1084 26.0354 25.0774 27.2116 23.7246 27.4371V22.2818C23.7245 21.4929 23.0849 20.8531 22.2959 20.8531H20.8672C20.0784 20.8533 19.4395 21.4931 19.4395 22.2818V27.4761H12.749C11.1711 27.4761 9.89164 26.1965 9.8916 24.6187V18.1675C10.6401 18.5309 11.4801 18.731 12.3408 18.731C13.3664 18.731 14.3404 18.4565 15.1699 17.9683C15.9995 18.4565 16.9743 18.731 18 18.731C19.0256 18.731 19.9996 18.4564 20.8291 17.9683ZM12.2959 20.8531C11.9015 20.8532 11.582 21.1735 11.582 21.5679V23.7105C11.582 24.105 11.9015 24.4242 12.2959 24.4244H16.582C16.9765 24.4243 17.2959 24.105 17.2959 23.7105V21.5679C17.2959 21.1735 16.9765 20.8532 16.582 20.8531H12.2959ZM12.3408 9.19781C16.7906 8.57697 19.2688 8.58253 23.6592 9.19781C26.4882 10.2237 27.1961 12.8844 27.1963 13.7398C27.1963 15.5106 25.6125 16.9467 23.6592 16.9468C22.5022 16.9468 21.4744 16.4432 20.8291 15.6646C20.1838 16.443 19.1568 16.9468 18 16.9468C16.843 16.9468 15.8152 16.4432 15.1699 15.6646C14.5246 16.443 13.4976 16.9468 12.3408 16.9468C10.3874 16.9468 8.80371 15.5106 8.80371 13.7398C8.80393 12.8844 9.51165 10.2237 12.3408 9.19781Z" fill="url(#paint1_linear_63_74)"/>
</g>
<defs>
<linearGradient id="paint0_linear_63_74" x1="4.46392" y1="-22.0933" x2="23.2619" y2="40.7625" gradientUnits="userSpaceOnUse">
<stop offset="0.0226884" stop-color="#97FCA6"/>
<stop offset="1" stop-color="#FFC502"/>
</linearGradient>
<linearGradient id="paint1_linear_63_74" x1="10.4061" y1="7.28361" x2="19.0159" y2="32.1036" gradientUnits="userSpaceOnUse">
<stop stop-color="#97FCA6"/>
<stop offset="1" stop-color="#F6C90F"/>
</linearGradient>
<clipPath id="clip0_63_74">
<rect width="20" height="20" fill="white" transform="translate(8 8)"/>
</clipPath>
</defs>
</svg>
